<svg width="489" height="163" viewBox="0 0 489 163" fill="none" xmlns="http://www.w3.org/2000/svg">
<g clip-path="url(#clip0_66_5251)">
<rect width="489" height="163" fill="#151319"/>
<line x1="9.25" y1="1.09278e-08" x2="9.24999" y2="163" stroke="#252525" stroke-width="0.5"/>
<line x1="2.25" y1="1.09278e-08" x2="2.24999" y2="163" stroke="#252525" stroke-width="0.5"/>
<line x1="489" y1="0.25" x2="1" y2="0.25" stroke="#252525" stroke-width="0.5"/>
<line x1="489" y1="63.25" x2="1" y2="63.25" stroke="#252525" stroke-width="0.5"/>
<line x1="489" y1="126.25" x2="1" y2="126.25" stroke="#252525" stroke-width="0.5"/>
<line x1="489" y1="7.25" x2="1" y2="7.25" stroke="#252525" stroke-width="0.5"/>
<line x1="489" y1="70.25" x2="1" y2="70.25" stroke="#252525" stroke-width="0.5"/>
<line x1="489" y1="133.25" x2="1" y2="133.25" stroke="#252525" stroke-width="0.5"/>
<line x1="489" y1="14.25" x2="1" y2="14.25" stroke="#252525" stroke-width="0.5"/>
<line x1="489" y1="77.25" x2="1" y2="77.25" stroke="#252525" stroke-width="0.5"/>
<line x1="489" y1="140.25" x2="1" y2="140.25" stroke="#252525" stroke-width="0.5"/>
<line x1="489" y1="21.25" x2="1" y2="21.25" stroke="#252525" stroke-width="0.5"/>
<line x1="489" y1="84.25" x2="1" y2="84.25" stroke="#252525" stroke-width="0.5"/>
<line x1="489" y1="147.25" x2="1" y2="147.25" stroke="#252525" stroke-width="0.5"/>
<line x1="489" y1="28.25" x2="1" y2="28.25" stroke="#252525" stroke-width="0.5"/>
<line x1="489" y1="91.25" x2="1" y2="91.25" stroke="#252525" stroke-width="0.5"/>
<line x1="489" y1="154.25" x2="1" y2="154.25" stroke="#252525" stroke-width="0.5"/>
<line x1="489" y1="35.25" x2="1" y2="35.25" stroke="#252525" stroke-width="0.5"/>
<line x1="489" y1="98.25" x2="1" y2="98.25" stroke="#252525" stroke-width="0.5"/>
<line x1="489" y1="161.25" x2="1" y2="161.25" stroke="#252525" stroke-width="0.5"/>
<line x1="489" y1="42.25" x2="1" y2="42.25" stroke="#252525" stroke-width="0.5"/>
<line x1="489" y1="105.25" x2="1" y2="105.25" stroke="#252525" stroke-width="0.5"/>
<line x1="489" y1="49.25" x2="1" y2="49.25" stroke="#252525" stroke-width="0.5"/>
<line x1="489" y1="112.25" x2="1" y2="112.25" stroke="#252525" stroke-width="0.5"/>
<line x1="489" y1="56.25" x2="1" y2="56.25" stroke="#252525" stroke-width="0.5"/>
<line x1="489" y1="119.25" x2="1" y2="119.25" stroke="#252525" stroke-width="0.5"/>
<line x1="17.25" y1="1.09278e-08" x2="17.25" y2="163" stroke="#252525" stroke-width="0.5"/>
<line x1="23.25" y1="1.09278e-08" x2="23.25" y2="163" stroke="#252525" stroke-width="0.5"/>
<line x1="29.25" y1="1.09278e-08" x2="29.25" y2="163" stroke="#252525" stroke-width="0.5"/>
<line x1="36.25" y1="1.09278e-08" x2="36.25" y2="163" stroke="#252525" stroke-width="0.5"/>
<line x1="43.25" y1="1.09278e-08" x2="43.25" y2="163" stroke="#252525" stroke-width="0.5"/>
<line x1="50.25" y1="1.09278e-08" x2="50.25" y2="163" stroke="#252525" stroke-width="0.5"/>
<line x1="57.25" y1="1.09278e-08" x2="57.25" y2="163" stroke="#252525" stroke-width="0.5"/>
<line x1="64.25" y1="1.09278e-08" x2="64.25" y2="163" stroke="#252525" stroke-width="0.5"/>
<line x1="71.25" y1="1.09278e-08" x2="71.25" y2="163" stroke="#252525" stroke-width="0.5"/>
<line x1="78.25" y1="1.09278e-08" x2="78.25" y2="163" stroke="#252525" stroke-width="0.5"/>
<line x1="85.25" y1="1.09278e-08" x2="85.25" y2="163" stroke="#252525" stroke-width="0.5"/>
<line x1="92.25" y1="1.09278e-08" x2="92.25" y2="163" stroke="#252525" stroke-width="0.5"/>
<line x1="99.25" y1="1.09278e-08" x2="99.25" y2="163" stroke="#252525" stroke-width="0.5"/>
<line x1="106.25" y1="1.09278e-08" x2="106.25" y2="163" stroke="#252525" stroke-width="0.5"/>
<line x1="113.25" y1="1.09278e-08" x2="113.25" y2="163" stroke="#252525" stroke-width="0.5"/>
<line x1="120.25" y1="1.09278e-08" x2="120.25" y2="163" stroke="#252525" stroke-width="0.5"/>
<line x1="127.25" y1="1.09278e-08" x2="127.25" y2="163" stroke="#252525" stroke-width="0.5"/>
<line x1="134.25" y1="1.09278e-08" x2="134.25" y2="163" stroke="#252525" stroke-width="0.5"/>
<line x1="204.25" y1="1.09278e-08" x2="204.25" y2="163" stroke="#252525" stroke-width="0.5"/>
<line x1="274.25" y1="1.09278e-08" x2="274.25" y2="163" stroke="#252525" stroke-width="0.5"/>
<line x1="344.25" y1="1.09278e-08" x2="344.25" y2="163" stroke="#252525" stroke-width="0.5"/>
<line x1="414.25" y1="1.09278e-08" x2="414.25" y2="163" stroke="#252525" stroke-width="0.5"/>
<line x1="484.25" y1="1.09278e-08" x2="484.25" y2="163" stroke="#252525" stroke-width="0.5"/>
<line x1="141.25" y1="1.09278e-08" x2="141.25" y2="163" stroke="#252525" stroke-width="0.5"/>
<line x1="211.25" y1="1.09278e-08" x2="211.25" y2="163" stroke="#252525" stroke-width="0.5"/>
<line x1="281.25" y1="1.09278e-08" x2="281.25" y2="163" stroke="#252525" stroke-width="0.5"/>
<line x1="351.25" y1="1.09278e-08" x2="351.25" y2="163" stroke="#252525" stroke-width="0.5"/>
<line x1="421.25" y1="1.09278e-08" x2="421.25" y2="163" stroke="#252525" stroke-width="0.5"/>
<line x1="148.25" y1="1.09278e-08" x2="148.25" y2="163" stroke="#252525" stroke-width="0.5"/>
<line x1="218.25" y1="1.09278e-08" x2="218.25" y2="163" stroke="#252525" stroke-width="0.5"/>
<line x1="288.25" y1="1.09278e-08" x2="288.25" y2="163" stroke="#252525" stroke-width="0.5"/>
<line x1="358.25" y1="1.09278e-08" x2="358.25" y2="163" stroke="#252525" stroke-width="0.5"/>
<line x1="428.25" y1="1.09278e-08" x2="428.25" y2="163" stroke="#252525" stroke-width="0.5"/>
<line x1="155.25" y1="1.09278e-08" x2="155.25" y2="163" stroke="#252525" stroke-width="0.5"/>
<line x1="225.25" y1="1.09278e-08" x2="225.25" y2="163" stroke="#252525" stroke-width="0.5"/>
<line x1="295.25" y1="1.09278e-08" x2="295.25" y2="163" stroke="#252525" stroke-width="0.5"/>
<line x1="365.25" y1="1.09278e-08" x2="365.25" y2="163" stroke="#252525" stroke-width="0.5"/>
<line x1="435.25" y1="1.09278e-08" x2="435.25" y2="163" stroke="#252525" stroke-width="0.5"/>
<line x1="162.25" y1="1.09278e-08" x2="162.25" y2="163" stroke="#252525" stroke-width="0.5"/>
<line x1="232.25" y1="1.09278e-08" x2="232.25" y2="163" stroke="#252525" stroke-width="0.5"/>
<line x1="302.25" y1="1.09278e-08" x2="302.25" y2="163" stroke="#252525" stroke-width="0.5"/>
<line x1="372.25" y1="1.09278e-08" x2="372.25" y2="163" stroke="#252525" stroke-width="0.5"/>
<line x1="442.25" y1="1.09278e-08" x2="442.25" y2="163" stroke="#252525" stroke-width="0.5"/>
<line x1="169.25" y1="1.09278e-08" x2="169.25" y2="163" stroke="#252525" stroke-width="0.5"/>
<line x1="239.25" y1="1.09278e-08" x2="239.25" y2="163" stroke="#252525" stroke-width="0.5"/>
<line x1="309.25" y1="1.09278e-08" x2="309.25" y2="163" stroke="#252525" stroke-width="0.5"/>
<line x1="379.25" y1="1.09278e-08" x2="379.25" y2="163" stroke="#252525" stroke-width="0.5"/>
<line x1="449.25" y1="1.09278e-08" x2="449.25" y2="163" stroke="#252525" stroke-width="0.5"/>
<line x1="176.25" y1="1.09278e-08" x2="176.25" y2="163" stroke="#252525" stroke-width="0.5"/>
<line x1="246.25" y1="1.09278e-08" x2="246.25" y2="163" stroke="#252525" stroke-width="0.5"/>
<line x1="316.25" y1="1.09278e-08" x2="316.25" y2="163" stroke="#252525" stroke-width="0.5"/>
<line x1="386.25" y1="1.09278e-08" x2="386.25" y2="163" stroke="#252525" stroke-width="0.5"/>
<line x1="456.25" y1="1.09278e-08" x2="456.25" y2="163" stroke="#252525" stroke-width="0.5"/>
<line x1="183.25" y1="1.09278e-08" x2="183.25" y2="163" stroke="#252525" stroke-width="0.5"/>
<line x1="253.25" y1="1.09278e-08" x2="253.25" y2="163" stroke="#252525" stroke-width="0.5"/>
<line x1="323.25" y1="1.09278e-08" x2="323.25" y2="163" stroke="#252525" stroke-width="0.5"/>
<line x1="393.25" y1="1.09278e-08" x2="393.25" y2="163" stroke="#252525" stroke-width="0.5"/>
<line x1="463.25" y1="1.09278e-08" x2="463.25" y2="163" stroke="#252525" stroke-width="0.5"/>
<line x1="190.25" y1="1.09278e-08" x2="190.25" y2="163" stroke="#252525" stroke-width="0.5"/>
<line x1="260.25" y1="1.09278e-08" x2="260.25" y2="163" stroke="#252525" stroke-width="0.5"/>
<line x1="330.25" y1="1.09278e-08" x2="330.25" y2="163" stroke="#252525" stroke-width="0.5"/>
<line x1="400.25" y1="1.09278e-08" x2="400.25" y2="163" stroke="#252525" stroke-width="0.5"/>
<line x1="470.25" y1="1.09278e-08" x2="470.25" y2="163" stroke="#252525" stroke-width="0.5"/>
<line x1="197.25" y1="1.09278e-08" x2="197.25" y2="163" stroke="#252525" stroke-width="0.5"/>
<line x1="267.25" y1="1.09278e-08" x2="267.25" y2="163" stroke="#252525" stroke-width="0.5"/>
<line x1="337.25" y1="1.09278e-08" x2="337.25" y2="163" stroke="#252525" stroke-width="0.5"/>
<line x1="407.25" y1="1.09278e-08" x2="407.25" y2="163" stroke="#252525" stroke-width="0.5"/>
<line x1="477.25" y1="1.09278e-08" x2="477.25" y2="163" stroke="#252525" stroke-width="0.5"/>
</g>
<defs>
<clipPath id="clip0_66_5251">
<rect width="489" height="163" fill="white"/>
</clipPath>
</defs>
</svg>
